<?xml version="1.0" standalone="no"?>
<!DOCTYPE svg PUBLIC "-//W3C//DTD SVG 1.1//EN" "http://www.w3.org/Graphics/SVG/1.1/DTD/svg11.dtd">
<svg version="1.1" xmlns="http://www.w3.org/2000/svg" viewBox="0 0 345.5064840391818 317.0650408035796"
      width="345.5064840391818" height="317.0650408035796" filter="invert(93%) hue-rotate(180deg)">
      <!-- svg-source:excalidraw -->
      <metadata></metadata>
      <defs>
            <style class="style-fonts">
                  @font-face {
                        font-family: Garamond, serif;

                  }
            </style>
      </defs>
      <g stroke-linecap="round" transform="translate(10 10) rotate(0 162.7532420195909 148.5325204017898)">
            <path d="M32 0 C110.44 -4.48, 192.14 -3.03, 293.51 0 C313.74 -0.01, 321.78 6.5, 325.51 32 C323.84 89.19, 327.51 148.18, 325.51 265.07 C329.34 287.09, 315.92 297.3, 293.51 297.07 C232.36 299.6, 166.27 299.5, 32 297.07 C8.2 294.68, 1.25 282.92, 0 265.07 C2.22 187.97, -3.07 108.26, 0 32 C2.32 12.23, 15.24 2.43, 32 0"
                  stroke="none" stroke-width="0" fill="#b2f2bb"></path>
            <path d="M32 0 C110.62 4.52, 193.47 6.9, 293.51 0 M32 0 C117.17 -5.17, 201.02 -4.22, 293.51 0 M293.51 0 C313.63 2.18, 324.88 13.04, 325.51 32 M293.51 0 C316.58 1.26, 326.8 8.52, 325.51 32 M325.51 32 C324.07 80.98, 324.32 128.25, 325.51 265.07 M325.51 32 C323.81 111.21, 326.48 187.41, 325.51 265.07 M325.51 265.07 C322.44 288.8, 316.76 294.9, 293.51 297.07 M325.51 265.07 C325.07 287.58, 313.8 299.09, 293.51 297.07 M293.51 297.07 C218.04 300.47, 142.74 297.82, 32 297.07 M293.51 297.07 C238.47 297.72, 181.57 297.41, 32 297.07 M32 297.07 C12.77 298.41, -0.62 286.82, 0 265.07 M32 297.07 C14.43 297.23, -3.24 285.32, 0 265.07 M0 265.07 C-0.83 205.3, -5.75 140.19, 0 32 M0 265.07 C-0.05 180.45, -1.32 92.8, 0 32 M0 32 C0.54 9.37, 11.26 -2.63, 32 0 M0 32 C1.82 14.69, 13.63 3.6, 32 0"
                  stroke="#2f9e44" stroke-width="4" fill="none"></path>
      </g>
      <g transform="translate(41.712547532512446 22.467855543823475) rotate(0 123.25000000000001 136.68406983802265)">
            <text x="123.25" y="110.11981800428521" font-family="Lilita One, Segoe UI Emoji"
                  font-size="118.8557129026284px" fill="#1e1e1e" text-anchor="middle" style="white-space: pre;"
                  direction="ltr" dominant-baseline="alphabetic">t0do</text><text x="123.25" y="246.80388784230786"
                  font-family="Lilita One, Segoe UI Emoji" font-size="118.8557129026284px" fill="#1e1e1e"
                  text-anchor="middle" style="white-space: pre;" direction="ltr"
                  dominant-baseline="alphabetic">.TxT</text>
      </g>
</svg>